<?xml version="1.0" encoding="UTF-8"?>
<svg id="Layer_3" xmlns="http://www.w3.org/2000/svg" xmlns:xlink="http://www.w3.org/1999/xlink" version="1.1" viewBox="0 0 1024 1024">
  <!-- Generator: Adobe Illustrator 30.0.0, SVG Export Plug-In . SVG Version: 2.1.1 Build 123)  -->
  <defs>
    <style>
      .st0 {
        fill: url(#linear-gradient);
      }

      .st1, .st2 {
        fill: #fff;
      }

      .st2 {
        stroke: #fff;
      }

      .st2, .st3 {
        stroke-miterlimit: 10;
      }

      .st3 {
        stroke: #000;
      }
    </style>
    <linearGradient id="linear-gradient" x1="-1938.5" y1="512" x2="-1213.5" y2="512" gradientUnits="userSpaceOnUse">
      <stop offset="0" stop-color="#217bfe"/>
      <stop offset=".3" stop-color="#078efb"/>
      <stop offset=".8" stop-color="#a190ff"/>
      <stop offset="1" stop-color="#bd99fe"/>
    </linearGradient>
  </defs>
  <rect width="1024" height="1024"/>
  <g id="colored">
    <path id="sparkle" class="st0" d="M-1215,510.7c-49.6,0-95.6-9.5-139.2-27.9-43.6-19.3-82.2-45.4-114.6-77.8-32.4-32.4-58.5-70.9-77.8-114.6-18.7-43.6-27.9-89.6-27.9-139.2s-.6-1.5-1.5-1.5-1.5.6-1.5,1.5c0,49.6-9.8,95.6-28.8,139.2-18.7,43.6-44.5,82.2-76.6,114.6-32.4,32.4-70.9,58.5-114.6,77.8-43.6,18.7-89.6,27.9-139.5,27.9s-1.5.6-1.5,1.5.6,1.5,1.5,1.5c49.6,0,95.6,9.8,139.5,28.8,43.6,18.7,82.2,44.5,114.6,76.6,32.4,32.4,58.2,70.9,76.6,114.6,19.3,43.6,28.8,89.6,28.8,139.2s.6,1.5,1.5,1.5,1.5-.6,1.5-1.5c0-49.6,9.5-95.6,27.9-139.2,19.3-43.6,45.4-82.2,77.8-114.6,32.4-32.4,70.9-58.2,114.6-76.6,43.6-19.3,89.6-28.8,139.2-28.8s1.5-.6,1.5-1.5-.6-1.5-1.5-1.5Z"/>
    <g id="sandbox">
      <path class="st3" d="M-1309.8,399.4c-29.1-69.4-84.2-124.5-153.6-153.6,62,39.1,114.5,91.6,153.6,153.6Z"/>
      <path class="st3" d="M-1463.4,778.2c69.4-29.1,124.5-84.2,153.6-153.6-39.1,62-91.6,114.5-153.6,153.6Z"/>
      <path class="st3" d="M-1842.2,624.6c29.1,69.4,84.2,124.5,153.6,153.6-62-39.1-114.5-91.6-153.6-153.6Z"/>
      <path class="st3" d="M-1688.6,245.8c-69.4,29.1-124.5,84.2-153.6,153.6,39.1-62,91.6-114.5,153.6-153.6Z"/>
    </g>
  </g>
  <g id="black">
    <path id="sparkle1" data-name="sparkle" d="M-161.7,510.7c-49.6,0-95.6-9.5-139.2-27.9-43.6-19.3-82.2-45.4-114.6-77.8-32.4-32.4-58.5-70.9-77.8-114.6-18.7-43.6-27.9-89.6-27.9-139.2s-.6-1.5-1.5-1.5-1.5.6-1.5,1.5c0,49.6-9.8,95.6-28.8,139.2-18.7,43.6-44.5,82.2-76.6,114.6-32.4,32.4-70.9,58.5-114.6,77.8-43.6,18.7-89.6,27.9-139.5,27.9s-1.5.6-1.5,1.5.6,1.5,1.5,1.5c49.6,0,95.6,9.8,139.5,28.8,43.6,18.7,82.2,44.5,114.6,76.6,32.4,32.4,58.2,70.9,76.6,114.6,19.3,43.6,28.8,89.6,28.8,139.2s.6,1.5,1.5,1.5,1.5-.6,1.5-1.5c0-49.6,9.5-95.6,27.9-139.2,19.3-43.6,45.4-82.2,77.8-114.6,32.4-32.4,70.9-58.2,114.6-76.6,43.6-19.3,89.6-28.8,139.2-28.8s1.5-.6,1.5-1.5-.6-1.5-1.5-1.5Z"/>
    <g id="sanbox">
      <path class="st3" d="M-256.4,399.4c-29.1-69.4-84.2-124.5-153.6-153.6,62,39.1,114.5,91.6,153.6,153.6Z"/>
      <path class="st3" d="M-410,778.2c69.4-29.1,124.5-84.2,153.6-153.6-39.1,62-91.6,114.5-153.6,153.6Z"/>
      <path class="st3" d="M-788.9,624.6c29.1,69.4,84.2,124.5,153.6,153.6-62-39.1-114.5-91.6-153.6-153.6Z"/>
      <path class="st3" d="M-635.3,245.8c-69.4,29.1-124.5,84.2-153.6,153.6,39.1-62,91.6-114.5,153.6-153.6Z"/>
    </g>
  </g>
  <g id="white">
    <path id="sparkle2" data-name="sparkle" class="st1" d="M873,510.7c-49.6,0-95.6-9.5-139.2-27.9-43.6-19.3-82.2-45.4-114.6-77.8-32.4-32.4-58.5-70.9-77.8-114.6-18.7-43.6-27.9-89.6-27.9-139.2s-.6-1.5-1.5-1.5-1.5.6-1.5,1.5c0,49.6-9.8,95.6-28.8,139.2-18.7,43.6-44.5,82.2-76.6,114.6-32.4,32.4-70.9,58.5-114.6,77.8-43.6,18.7-89.6,27.9-139.5,27.9s-1.5.6-1.5,1.5.6,1.5,1.5,1.5c49.6,0,95.6,9.8,139.5,28.8,43.6,18.7,82.2,44.5,114.6,76.6,32.4,32.4,58.2,70.9,76.6,114.6,19.3,43.6,28.8,89.6,28.8,139.2s.6,1.5,1.5,1.5,1.5-.6,1.5-1.5c0-49.6,9.5-95.6,27.9-139.2,19.3-43.6,45.4-82.2,77.8-114.6,32.4-32.4,70.9-58.2,114.6-76.6,43.6-19.3,89.6-28.8,139.2-28.8s1.5-.6,1.5-1.5-.6-1.5-1.5-1.5Z"/>
    <path class="st2" d="M778.2,399.4c-29.1-69.4-84.2-124.5-153.6-153.6,62,39.1,114.5,91.6,153.6,153.6Z"/>
    <path class="st2" d="M624.6,778.2c69.4-29.1,124.5-84.2,153.6-153.6-39.1,62-91.6,114.5-153.6,153.6Z"/>
    <path class="st2" d="M245.8,624.6c29.1,69.4,84.2,124.5,153.6,153.6-62-39.1-114.5-91.6-153.6-153.6Z"/>
    <path class="st2" d="M399.4,245.8c-69.4,29.1-124.5,84.2-153.6,153.6,39.1-62,91.6-114.5,153.6-153.6Z"/>
  </g>
</svg>